<?xml version="1.0" standalone="no"?>
<!DOCTYPE svg PUBLIC "-//W3C//DTD SVG 20010904//EN"
 "http://www.w3.org/TR/2001/REC-SVG-20010904/DTD/svg10.dtd">
<svg version="1.0" xmlns="http://www.w3.org/2000/svg"
 width="1213.000000pt" height="646.000000pt" viewBox="0 0 1213.000000 646.000000"
 preserveAspectRatio="xMidYMid meet">

<g transform="translate(0.000000,646.000000) scale(0.100000,-0.100000)"
fill="#000000" stroke="none">
<path d="M5615 6454 c-33 -2 -145 -8 -250 -14 -1926 -111 -3687 -744 -4623
-1664 -408 -401 -633 -791 -719 -1250 -22 -115 -24 -454 -5 -566 83 -470 312
-873 723 -1275 218 -212 409 -362 687 -538 914 -580 2199 -973 3597 -1102 383
-35 510 -40 1040 -40 530 0 657 5 1040 40 1856 171 3462 797 4337 1691 154
157 231 251 338 411 149 224 237 416 295 648 131 519 32 1026 -295 1518 -264
395 -656 748 -1193 1071 -951 573 -2256 940 -3737 1052 -190 14 -1077 27
-1235 18z m-1245 -2320 c255 -53 471 -222 589 -461 65 -131 76 -184 76 -363 0
-131 -4 -167 -23 -235 -113 -396 -475 -656 -880 -632 -129 8 -195 26 -329 92
-89 44 -127 70 -193 132 -122 114 -194 227 -246 383 -26 79 -28 96 -29 255 0
137 4 183 19 235 77 268 293 494 551 575 147 47 299 53 465 19z m-2725 -29
c143 -37 259 -126 318 -245 l34 -67 41 62 c81 123 206 213 347 250 76 19 233
20 308 0 179 -46 320 -196 367 -390 15 -58 26 -934 15 -1104 l-7 -104 -164
164 -164 164 0 350 c0 392 -5 431 -64 521 -37 56 -107 108 -170 126 -23 6 -77
11 -121 11 -136 -1 -241 -56 -301 -159 -49 -84 -54 -139 -54 -667 l0 -487
-167 2 -168 3 -2 440 c-3 594 -3 601 -42 680 -63 127 -170 190 -321 188 -179
-2 -307 -110 -340 -285 -6 -28 -10 -267 -10 -534 l0 -484 -170 0 -170 0 0 654
c0 360 -4 665 -9 678 -5 13 -48 67 -95 121 l-87 97 254 0 255 0 6 -31 c3 -17
6 -75 6 -129 0 -53 3 -100 6 -103 4 -4 20 13 36 38 71 108 209 205 338 239 73
19 221 20 295 1z m6106 0 c212 -37 365 -144 444 -310 62 -132 65 -157 65 -613
0 -460 -1 -454 74 -581 l35 -61 -194 0 -194 0 -16 53 c-9 28 -18 78 -22 110
-3 31 -9 57 -12 57 -3 0 -17 -16 -30 -35 -40 -59 -138 -142 -204 -174 -131
-63 -354 -79 -497 -35 -232 70 -370 252 -370 488 0 251 149 434 410 503 91 24
301 24 390 0 82 -22 194 -75 244 -116 21 -17 43 -31 49 -31 6 0 8 40 4 113 -6
122 -25 189 -73 259 -118 169 -475 203 -748 72 -28 -13 -51 -24 -53 -24 -2 0
-3 51 -3 114 l0 114 63 25 c80 32 200 65 273 76 96 14 275 12 365 -4z m1924 1
c184 -49 306 -164 372 -351 l28 -80 3 -490 c2 -269 2 -533 0 -585 l-3 -95
-162 159 -163 160 0 315 c0 174 -5 349 -10 389 -17 134 -90 236 -204 288 -54
25 -72 28 -166 28 -118 0 -187 -20 -257 -75 -44 -35 -107 -124 -125 -177 -9
-27 -13 -175 -16 -544 l-3 -508 -169 0 -170 0 0 664 0 664 -42 51 c-24 28 -67
77 -96 111 l-54 60 256 0 255 0 6 -32 c3 -18 9 -79 13 -136 l7 -102 47 64 c72
100 201 187 327 222 62 17 263 17 326 0z m1592 -5 c235 -49 393 -194 455 -418
20 -73 22 -108 27 -523 l6 -445 48 -87 47 -88 -193 0 -194 0 -11 38 c-7 20
-17 71 -24 113 l-12 76 -27 -37 c-45 -61 -130 -138 -189 -169 -100 -53 -161
-66 -315 -65 -123 0 -149 3 -217 26 -96 32 -164 74 -225 142 -87 95 -127 209
-126 356 1 144 51 259 153 354 111 102 265 156 446 156 179 0 330 -47 442
-138 l52 -42 0 101 c0 269 -110 400 -361 431 -149 19 -335 -14 -471 -83 l-38
-19 0 115 0 116 46 19 c66 29 169 59 254 74 114 21 317 19 427 -3z m-5735
-161 c33 -80 102 -246 153 -370 51 -124 144 -350 206 -502 62 -152 114 -276
115 -275 1 1 63 155 139 342 75 187 196 478 268 648 l131 307 104 0 c79 0 103
-3 99 -12 -51 -134 -465 -1125 -571 -1368 l-71 -165 -175 -3 -175 -2 -26 62
c-96 226 -301 709 -410 963 l-128 300 -118 112 -118 113 259 -3 258 -2 60
-145z"/>
<path d="M4031 4059 c-391 -77 -662 -448 -612 -839 49 -384 352 -669 731 -687
267 -13 523 118 671 345 89 136 129 272 129 442 0 361 -277 680 -641 739 -75
13 -215 12 -278 0z m109 -49 c0 -34 -4 -41 -25 -46 -14 -3 -31 -4 -39 -1 -13
5 -27 72 -17 82 2 3 22 5 43 5 38 0 38 0 38 -40z m160 11 c0 -49 -9 -61 -46
-61 -34 0 -34 1 -34 45 l0 45 40 0 c38 0 40 -2 40 -29z m-310 -62 c0 -15 -27
-29 -58 -29 -12 0 -33 42 -32 65 0 6 15 15 33 21 30 11 33 10 44 -15 7 -14 12
-33 13 -42z m445 49 c28 -13 31 -25 13 -63 -10 -22 -16 -25 -37 -20 -38 9 -43
18 -36 59 8 38 19 43 60 24z m-598 -83 c16 -34 16 -36 -3 -50 -28 -21 -46 -18
-68 12 l-19 26 27 24 c36 31 43 29 63 -12z m747 14 c32 -25 32 -31 3 -65 l-24
-28 -31 23 -31 22 21 34 c23 41 27 42 62 14z m-245 -15 c218 -49 417 -234 449
-416 l8 -43 51 2 51 2 6 -37 c11 -67 6 -201 -10 -280 -9 -46 -34 -115 -61
-171 -81 -164 -251 -314 -419 -370 -187 -62 -366 -50 -549 39 -184 89 -333
273 -386 479 -21 78 -29 245 -15 308 7 30 9 31 53 30 l46 -2 16 60 c26 92 69
163 147 242 153 156 372 212 613 157z m-630 -90 c19 -24 19 -28 5 -49 -22 -33
-39 -37 -68 -14 -32 25 -32 36 -4 66 28 30 42 29 67 -3z m1009 3 l22 -23 -30
-29 c-24 -23 -34 -27 -47 -19 -35 22 -39 42 -13 69 29 31 41 31 68 2z m95
-124 l18 -31 -35 -20 -35 -21 -20 32 -20 32 27 22 c33 27 42 25 65 -14z
m-1195 7 l24 -20 -22 -35 -22 -35 -30 17 c-39 23 -43 36 -23 67 20 31 41 32
73 6z m1275 -162 c4 -12 -6 -21 -36 -33 -47 -19 -55 -13 -61 45 -1 6 13 19 29
29 30 18 30 18 47 -3 9 -11 19 -29 21 -38z m-1349 32 c28 -10 32 -26 15 -63
-10 -22 -14 -24 -45 -14 -26 8 -34 16 -34 33 0 52 15 63 64 44z"/>
<path d="M4086 3848 c-78 -45 -112 -171 -66 -246 23 -38 74 -72 110 -73 28 0
24 -2 -47 -29 -18 -7 -49 -28 -69 -48 -145 -140 -66 -386 134 -418 73 -11 140
12 198 71 61 61 78 108 72 202 -3 49 -10 72 -34 105 -35 51 -84 85 -141 101
l-41 11 51 17 c112 38 151 152 84 249 -38 57 -70 74 -145 78 -55 2 -74 -1
-106 -20z"/>
<path d="M3725 3646 c-101 -44 -133 -181 -65 -275 92 -127 262 -80 310 86 23
78 -14 159 -87 189 -41 18 -119 17 -158 0z"/>
<path d="M4497 3646 c-50 -19 -67 -34 -88 -81 -26 -55 -23 -102 7 -163 40 -81
103 -114 188 -98 73 14 135 98 136 182 0 56 -37 123 -81 146 -49 25 -116 31
-162 14z"/>
<path d="M3731 3233 c-19 -10 -48 -35 -65 -56 -25 -31 -31 -49 -34 -101 -5
-71 8 -103 58 -151 28 -27 38 -30 108 -33 61 -2 84 1 111 16 135 74 61 322
-101 339 -29 3 -54 -2 -77 -14z"/>
<path d="M4528 3240 c-81 -25 -144 -122 -136 -209 9 -96 75 -146 182 -139 74
4 117 31 147 91 43 83 9 201 -69 241 -38 20 -92 27 -124 16z"/>
<path d="M4091 2998 c-103 -51 -119 -183 -32 -269 86 -87 219 -66 281 43 33
58 26 145 -16 189 -58 62 -152 77 -233 37z"/>
<path d="M7388 3321 c-111 -36 -187 -116 -209 -220 -24 -114 12 -225 96 -299
124 -109 379 -112 520 -5 105 81 135 149 135 313 0 86 -1 89 -31 114 -91 77
-213 116 -359 115 -63 0 -114 -6 -152 -18z"/>
<path d="M10883 3325 c-108 -33 -179 -102 -208 -198 -46 -154 15 -302 152
-369 66 -32 71 -33 193 -33 107 0 133 4 182 23 71 29 152 100 184 163 21 43
24 61 24 168 l0 119 -35 31 c-49 42 -122 78 -197 96 -77 18 -238 18 -295 0z"/>
</g>
</svg>
